<svg id="Layer_1" data-name="Layer 1" xmlns="http://www.w3.org/2000/svg" viewBox="0 0 240 250"><path d="M88.45,149.63a33.84,33.84,0,0,1,2.46,2.74c1.11,1.54,2.16,3.14,3.14,4.77,3.59,6,8.82,8.36,15.79,7.26-.14.36-.24.68-.38,1q-4.18,9-8.4,18a6.2,6.2,0,0,1-1.15,1.32,6.63,6.63,0,0,1-1.25-1.23c-2-3.45-4.08-6.93-6.06-10.42a1.2,1.2,0,0,0-1.48-.69q-5.93,1.09-11.87,2.08a6.71,6.71,0,0,1-1.76-.18,6.73,6.73,0,0,1,.27-1.72q5-10.78,10-21.52C87.93,150.66,88.12,150.29,88.45,149.63Z"/><path d="M168.44,107.55c-.47,1.53-.86,3.09-1.44,4.57a23.72,23.72,0,0,1-1.89,3.77c-2.45,4-2.81,8.3-2.07,12.83a26.31,26.31,0,0,1,.41,5.8,9.36,9.36,0,0,1-5.66,8.16c-2.23,1.09-4.54,2-6.8,3a13.34,13.34,0,0,0-5.77,4.95q-1.71,2.6-3.43,5.19a10.06,10.06,0,0,1-12,4.3c-1.87-.55-3.74-1.07-5.59-1.69a13.68,13.68,0,0,0-8.78,0,50,50,0,0,1-7.65,2.07c-4,.62-7.14-1-9.46-4.22-1.23-1.71-2.37-3.5-3.5-5.28a14.2,14.2,0,0,0-6.61-5.64c-1.63-.69-3.25-1.44-4.89-2.14-5.61-2.4-7.78-6.3-6.9-12.37.28-2,.45-3.94.68-5.92a12,12,0,0,0-1.38-7c-1-2-2-3.91-3-5.88A10,10,0,0,1,74.86,100c1.44-1.38,2.86-2.77,4.36-4.08A13.74,13.74,0,0,0,83.77,88c.37-1.86.83-3.71,1.27-5.56a10,10,0,0,1,9.15-8c2.81-.26,5.63-.39,8.43-.61a10,10,0,0,0,5.14-2c1.91-1.39,3.8-2.81,5.7-4.22a10.05,10.05,0,0,1,12.75,0c1,.71,2,1.38,2.88,2.17a18.92,18.92,0,0,0,13.19,4.55,20.64,20.64,0,0,1,4.58.37,9.79,9.79,0,0,1,7.83,7.75c.62,2.45,1.16,4.92,1.78,7.36a10.23,10.23,0,0,0,2.89,5c1.85,1.79,3.73,3.54,5.58,5.32A11.43,11.43,0,0,1,168.44,107.55ZM88.5,113a31.38,31.38,0,1,0,31.43-31.33A31.39,31.39,0,0,0,88.5,113Z"/><path d="M129.86,164.4c7,1.08,12.17-1.25,15.77-7.16,1.17-1.91,2.47-3.73,3.75-5.56.49-.71,1.08-1.35,1.82-2.25.41.83.61,1.21.79,1.6q5,10.75,10,21.52a6.32,6.32,0,0,1,.26,1.72,6.71,6.71,0,0,1-1.76.18q-5.88-1-11.74-2.08a1.34,1.34,0,0,0-1.67.8c-2,3.5-4,7-6.06,10.42-.27.45-.8,1-1.19,1s-.86-.66-1.09-1.13c-2.86-6.07-5.68-12.15-8.51-18.23C130.11,165,130,164.74,129.86,164.4Z"/><path d="M138,130.44H101.75c.11-6.41,6.31-16,17.67-16.31S137.7,123.2,138,130.44Z"/><path d="M129.14,102.34A9.27,9.27,0,1,1,119.83,93,9.23,9.23,0,0,1,129.14,102.34Z"/></svg>